<?xml version="1.0" encoding="utf-8"?>
<!-- Generator: Adobe Illustrator 16.0.0, SVG Export Plug-In . SVG Version: 6.00 Build 0)  -->
<!DOCTYPE svg PUBLIC "-//W3C//DTD SVG 1.1//EN" "http://www.w3.org/Graphics/SVG/1.1/DTD/svg11.dtd">
<svg version="1.1" id="Layer_1" xmlns="http://www.w3.org/2000/svg" xmlns:xlink="http://www.w3.org/1999/xlink" x="0px" y="0px"
	 width="612px" height="791.999px" viewBox="0 0 612 791.999" enable-background="new 0 0 612 791.999" xml:space="preserve">
<rect x="281.693" y="379.371" fill="#4C63AC" width="60.307" height="20.999"/>
<path fill="#FFFFFF" d="M301.217,394.667c-0.033,0.76-0.332,1.404-0.893,1.924c-0.561,0.525-1.217,0.768-1.969,0.734l-1.83-0.078
	l0.25-5.828l1.938,0.084l0.357-2.113l-2.205-0.094l0.059-1.363c0.014-0.326,0.133-0.594,0.303-0.805
	c0.168-0.156,0.496-0.25,0.926-0.232l1.238,0.053l0.086-2.016c-0.59-0.08-1.178-0.158-1.715-0.182
	c-0.861-0.036-1.574,0.205-2.078,0.674c-0.559,0.467-0.807,1.221-0.846,2.146l-0.068,1.58l-2.098-0.09l-0.091,2.125l2.099,0.09
	l-0.25,5.828l-5.165-0.221c-0.7,0.023-1.335-0.275-1.851-0.846c-0.516-0.564-0.754-1.232-0.722-1.992l0.392-9.152
	c0.033-0.762,0.328-1.405,0.89-1.928c0.563-0.521,1.22-0.765,1.973-0.732l9.091,0.389c0.7,0.03,1.334,0.33,1.846,0.896
	c0.516,0.568,0.758,1.234,0.725,1.996L301.217,394.667z"/>
<g enable-background="new    ">
	<g>
		<defs>
			<rect id="SVGID_1_" x="305.229" y="384.488" width="32.92" height="15.882"/>
		</defs>
		<clipPath id="SVGID_2_">
			<use xlink:href="#SVGID_1_"  overflow="visible"/>
		</clipPath>
		<g clip-path="url(#SVGID_2_)">
			<defs>
				<rect id="SVGID_3_" x="305.229" y="384.488" width="32.92" height="15.882"/>
			</defs>
			<clipPath id="SVGID_4_">
				<use xlink:href="#SVGID_3_"  overflow="visible"/>
			</clipPath>
			<g clip-path="url(#SVGID_4_)">
				<text transform="matrix(1 0 0 1 305.229 394.6748)" fill="#FFFFFF" font-family="'BPGGlaho'" font-size="11.8462">Share</text>
			</g>
		</g>
	</g>
</g>
<rect x="277.667" y="378" fill="none" width="67.333" height="23.667"/>
</svg>
