<?xml version="1.0" encoding="utf-8"?>
<!-- Generator: Adobe Illustrator 16.0.0, SVG Export Plug-In . SVG Version: 6.00 Build 0)  -->
<!DOCTYPE svg PUBLIC "-//W3C//DTD SVG 1.1//EN" "http://www.w3.org/Graphics/SVG/1.1/DTD/svg11.dtd">
<svg version="1.1" id="Layer_1" xmlns="http://www.w3.org/2000/svg" xmlns:xlink="http://www.w3.org/1999/xlink" x="0px" y="0px"
	 width="120.27px" height="145.946px" viewBox="0 0 120.27 145.946" enable-background="new 0 0 120.27 145.946"
	 xml:space="preserve">
<path fill="#3F59A6" d="M82.417,31.176c-2.437-11.792-12.92-20.66-25.484-20.66c-14.37,0-26.019,11.601-26.019,25.909
	c0,9.596,5.287,18.267,13.596,22.77c1.87,1.014,4.211,0.326,5.229-1.536c1.017-1.862,0.327-4.193-1.543-5.206
	c-5.854-3.173-9.573-9.272-9.573-16.027c0-10.068,8.198-18.231,18.31-18.231c10.112,0,18.311,8.163,18.311,18.231
	c0,6.682-3.638,12.725-9.392,15.928c-1.858,1.033-2.522,3.372-1.483,5.223c1.039,1.85,3.387,2.512,5.245,1.477
	c7.464-4.154,12.427-11.688,13.226-20.198h11.317v3.847c0,1.036,0.705,1.409,1.574,0.79l10.342-7.356
	c0.889-0.631,0.871-1.621,0-2.238L95.73,26.539c-0.887-0.63-1.574-0.264-1.574,0.791v3.847H82.417z"/>
<path fill="#3F59A6" d="M43.305,137.233c0.73,0.92,1.844,1.455,3.022,1.455h48.182c1.574,0,2.988-0.951,3.577-2.404
	c0.074-0.183,1.008-2.632,1.359-3.613c1.004-2.793,2.006-5.833,2.943-9.021c1.496-5.1,2.682-10.091,3.434-14.81
	c1.631-10.203,1.176-18.364-2.234-23.959c-3.547-5.819-9.881-10.008-18.146-12.974c-4.293-1.541-8.854-2.655-13.408-3.42
	c-1.592-0.269-2.579-0.385-2.579-0.385V33.117c0-6.347-5.192-11.496-11.564-11.496h-1.928c-6.384,0-11.564,5.164-11.564,11.515
	l0.008,60.638L31.568,82.587c-8.243-7.183-19.714-5.273-25.142,4.183c-0.848,1.478-0.719,3.175,0.258,4.403L43.305,137.233z
	 M15.738,87.561c3.147-2.398,7.294-2.211,10.755,0.804l19.223,16.749c2.492,2.172,6.394,0.409,6.394-2.889v-69.09
	c0-2.112,1.729-3.838,3.854-3.838h1.928c2.122,0,3.854,1.719,3.854,3.819v38.401c0,2.013,1.561,3.683,3.574,3.828
	c0.24,0.019,0.73,0.063,1.437,0.144c1.201,0.136,2.545,0.322,3.995,0.565c4.133,0.695,8.262,1.703,12.077,3.073
	c6.761,2.427,11.708,5.698,14.169,9.735c2.211,3.628,2.579,10.217,1.211,18.77c-0.698,4.367-1.809,9.051-3.221,13.86
	c-0.891,3.036-1.846,5.934-2.801,8.592c-0.334,0.928-0.314,0.927-0.314,0.927H48.254L14.54,88.685
	C14.54,88.685,15.09,88.055,15.738,87.561"/>
</svg>
