<?xml version="1.0" encoding="utf-8"?>
<!-- Generator: Adobe Illustrator 16.0.0, SVG Export Plug-In . SVG Version: 6.00 Build 0)  -->
<!DOCTYPE svg PUBLIC "-//W3C//DTD SVG 1.1//EN" "http://www.w3.org/Graphics/SVG/1.1/DTD/svg11.dtd">
<svg version="1.1" id="Layer_1" xmlns="http://www.w3.org/2000/svg" xmlns:xlink="http://www.w3.org/1999/xlink" x="0px" y="0px"
	 width="104.054px" height="141.892px" viewBox="0 0 104.054 141.892" enable-background="new 0 0 104.054 141.892"
	 xml:space="preserve">
<path fill="#3F59A6" d="M95.212,89.594c-0.834-0.707-2.081-0.603-2.786,0.227l-13.693,16.071l-8.75-6.933
	c-0.851-0.678-2.097-0.535-2.776,0.314c-0.681,0.851-0.538,2.089,0.315,2.767l10.247,8.12c0.363,0.287,0.798,0.429,1.23,0.429
	c0.561,0,1.119-0.238,1.509-0.694l14.932-17.525C96.146,91.539,96.045,90.298,95.212,89.594 M81.343,122.779
	c-1.091,0-1.977,0.881-1.977,1.97c0,3.256-2.66,5.904-5.931,5.904H20.983c-3.27,0-5.931-2.648-5.931-5.904V16.921
	c0-3.256,2.661-5.906,5.931-5.906h52.452c3.271,0,5.931,2.65,5.931,5.906v60.254c0,1.087,0.886,1.968,1.977,1.968
	c1.092,0,1.977-0.881,1.977-1.968v-33.61c1.505-0.303,2.641-1.63,2.641-3.215v-8.613c0-1.585-1.136-2.912-2.641-3.215V16.921
	c0-5.429-4.433-9.844-9.884-9.844H20.983c-5.451,0-9.885,4.415-9.885,9.844v107.828c0,5.428,4.434,9.842,9.885,9.842h52.452
	c5.018,0,9.174-3.741,9.803-8.571c0.055-0.178,0.083-0.367,0.083-0.563v-0.708C83.319,123.66,82.435,122.779,81.343,122.779
	 M57.095,17.107c1.091,0,1.977-0.88,1.977-1.968s-0.886-1.969-1.977-1.969h-19.77c-1.091,0-1.977,0.881-1.977,1.969
	s0.886,1.968,1.977,1.968H57.095z M41.715,123.847c0,3.017,2.466,5.473,5.496,5.473c3.028,0,5.495-2.456,5.495-5.473
	s-2.467-5.471-5.495-5.471C44.181,118.376,41.715,120.832,41.715,123.847 M48.752,123.847c0,0.847-0.69,1.536-1.541,1.536
	c-0.853,0-1.542-0.689-1.542-1.536c0-0.846,0.689-1.534,1.542-1.534C48.062,122.313,48.752,123.002,48.752,123.847 M70.833,79.021
	c1.205,0,2.18-0.972,2.18-2.172V32.783c0-3.665-3.536-6.88-7.568-6.88H29.702c-4.174,0-7.568,3.38-7.568,7.536v73.477
	c0,4.155,3.395,7.535,7.568,7.535h31.186c1.205,0,2.18-0.972,2.18-2.172c0-1.198-0.975-2.171-2.18-2.171H29.702
	c-1.77,0-3.209-1.434-3.209-3.194V33.439c0-1.761,1.439-3.194,3.209-3.194h35.742c1.86,0,3.208,1.517,3.208,2.538V76.85
	C68.652,78.05,69.628,79.021,70.833,79.021"/>
</svg>
